<svg xmlns="http://www.w3.org/2000/svg" width="908" height="293" viewBox="0 0 908 293">
  <defs>
    <linearGradient id="linearGradient-1" x1="50%" x2="50%" y1="127.56%" y2="752.262%">
      <stop offset="0%" stop-color="#6CF"/>
      <stop offset="38%" stop-color="#5495DA"/>
      <stop offset="100%" stop-color="#339"/>
    </linearGradient>
    <linearGradient id="linearGradient-2" x1="50.007%" x2="50.007%" y1="21.638%" y2="396.996%">
      <stop offset="0%" stop-color="#6CF"/>
      <stop offset="38%" stop-color="#5495DA"/>
      <stop offset="100%" stop-color="#339"/>
    </linearGradient>
    <linearGradient id="linearGradient-3" x1="50.064%" x2="50.064%" y1="0%" y2="100%">
      <stop offset="0%" stop-color="#6CF"/>
      <stop offset="38%" stop-color="#5495DA"/>
      <stop offset="100%" stop-color="#339"/>
    </linearGradient>
    <linearGradient id="linearGradient-4" x1="49.905%" x2="49.905%" y1="0%" y2="99.999%">
      <stop offset="0%" stop-color="#6CF"/>
      <stop offset="38%" stop-color="#5495DA"/>
      <stop offset="100%" stop-color="#339"/>
    </linearGradient>
    <linearGradient id="linearGradient-5" x1="50.005%" x2="50.005%" y1="-8.95%" y2="34.677%">
      <stop offset="0%" stop-color="#6CF"/>
      <stop offset="38%" stop-color="#5495DA"/>
      <stop offset="100%" stop-color="#339"/>
    </linearGradient>
    <linearGradient id="linearGradient-6" x1="50.017%" x2="50.017%" y1=".017%" y2="100%">
      <stop offset="0%" stop-color="#6CF"/>
      <stop offset="38%" stop-color="#5495DA"/>
      <stop offset="100%" stop-color="#339"/>
    </linearGradient>
    <linearGradient id="linearGradient-7" x1="49.987%" x2="49.987%" y1=".051%" y2="100.05%">
      <stop offset="0%" stop-color="#6CF"/>
      <stop offset="38%" stop-color="#5495DA"/>
      <stop offset="100%" stop-color="#339"/>
    </linearGradient>
    <linearGradient id="linearGradient-8" x1=".042%" x2="99.994%" y1="49.992%" y2="49.992%">
      <stop offset="0%" stop-color="#6CF"/>
      <stop offset="38%" stop-color="#5495DA"/>
      <stop offset="100%" stop-color="#339"/>
    </linearGradient>
    <linearGradient id="linearGradient-9" x1="100.028%" x2=".028%" y1="49.989%" y2="49.989%">
      <stop offset="0%" stop-color="#6CF"/>
      <stop offset="38%" stop-color="#5495DA"/>
      <stop offset="100%" stop-color="#339"/>
    </linearGradient>
    <linearGradient id="linearGradient-10" x1="49.947%" x2="49.947%" y1="-.038%" y2="99.881%">
      <stop offset="0%" stop-color="#6CF"/>
      <stop offset="38%" stop-color="#5495DA"/>
      <stop offset="100%" stop-color="#339"/>
    </linearGradient>
  </defs>
  <g fill="none" fill-rule="evenodd" class="page-1">
    <g fill-rule="nonzero" class="page-1__group" transform="translate(0 -1)">
      <path fill="#339" d="M47.08,292.24 C46.7210149,292.24 46.43,291.948985 46.43,291.59 L46.43,273.08 C46.4355095,271.476758 47.7367485,270.179991 49.34,270.18 L84.28,270.18 C84.7069985,270.18 85.1165083,270.010375 85.4184419,269.708442 C85.7203755,269.406508 85.89,268.996999 85.89,268.57 L85.89,227.14 C85.8873418,226.369141 86.1917028,225.628943 86.7358467,225.082923 C87.2799906,224.536903 88.0191364,224.229995 88.79,224.23 L127.74,224.23 C128.510864,224.229995 129.250009,224.536903 129.794153,225.082923 C130.338297,225.628943 130.642658,226.369141 130.64,227.14 L130.64,237.88 C130.645499,238.765271 131.364712,239.480017 132.25,239.48 L198.08,239.48 C198.963656,239.48 199.68,238.763656 199.68,237.88 L199.68,137.46 C199.685509,135.856758 200.986749,134.559983 202.59,134.559983 L258.75,134.559983 C259.520859,134.557342 260.261057,134.861703 260.807077,135.405847 C261.353097,135.949991 261.660005,136.689136 261.66,137.46 L261.66,188 C261.665499,188.885271 262.384712,189.600017 263.27,189.6 L294.05,189.6 C294.82178,189.6 295.56195,189.906588 296.107681,190.452319 C296.653412,190.99805 296.96,191.73822 296.96,192.51 L296.96,219 C296.96,219.358985 296.668985,219.65 296.31,219.65 C295.951015,219.65 295.66,219.358985 295.66,219 L295.66,192.49 C295.654501,191.604729 294.935288,190.889983 294.05,190.89 L263.27,190.89 C261.662851,190.89 260.36,189.587149 260.36,187.98 L260.36,137.46 C260.354501,136.574729 259.635288,135.859983 258.75,135.86 L202.59,135.86 C201.706344,135.86 200.99,136.576344 200.99,137.46 L200.99,237.88 C200.984491,239.483242 199.683251,240.780009 198.08,240.78 L132.25,240.78 C130.646749,240.780009 129.345509,239.483242 129.34,237.88 L129.34,227.14 C129.340017,226.254712 128.625271,225.535499 127.74,225.53 L88.79,225.53 C87.9047293,225.535499 87.1899829,226.254712 87.19,227.14 L87.19,268.57 C87.1845132,270.17487 85.8848704,271.474513 84.28,271.48 L49.34,271.48 C48.4547122,271.479983 47.7354987,272.194729 47.73,273.08 L47.73,291.59 C47.73,291.948985 47.4389851,292.24 47.08,292.24 L47.08,292.24 Z" class="page-1__group__path"/>
      <path fill="#339" d="M230.67,135.71 C230.311015,135.71 230.02,135.418985 230.02,135.06 L230.02,110.61 C230.02,110.251015 230.311015,109.96 230.67,109.96 C231.028985,109.96 231.32,110.251015 231.32,110.61 L231.32,135.06 C231.32,135.418985 231.028985,135.71 230.67,135.71 Z M195.15,293.43 C194.791015,293.43 194.5,293.138985 194.5,292.78 L194.5,273.23 C194.505509,271.626758 195.806749,270.33 197.41,270.33 L208.13,270.33 C208.488985,270.33 208.78,270.621015 208.78,270.98 C208.78,271.338985 208.488985,271.63 208.13,271.63 L197.41,271.63 C196.524712,271.629983 195.805499,272.344729 195.8,273.23 L195.8,292.78 C195.8,293.138985 195.508985,293.43 195.15,293.43 L195.15,293.43 Z M375.45,293.68 C375.089362,293.68 374.795464,293.390597 374.79,293.03 L374.79,253.11 C374.79,252.685654 374.621429,252.278687 374.321371,251.978629 C374.021313,251.678571 373.614346,251.51 373.19,251.51 L328.43,251.51 C326.822851,251.51 325.52,250.207149 325.52,248.6 L325.52,221.16 C325.52,220.733001 325.350375,220.323492 325.048442,220.021558 C324.746508,219.719625 324.336999,219.55 323.91,219.55 L267.75,219.55 C266.864729,219.555499 266.149983,220.274712 266.15,221.16 L266.15,253.69 C266.15,254.048985 265.858985,254.34 265.5,254.34 C265.141015,254.34 264.85,254.048985 264.85,253.69 L264.85,221.16 C264.85,219.556749 266.146758,218.255509 267.75,218.25 L323.91,218.25 C324.68178,218.25 325.42195,218.556588 325.967681,219.102319 C326.513412,219.64805 326.82,220.38822 326.82,221.16 L326.82,248.6 C326.82,249.489178 327.540822,250.21 328.43,250.21 L373.19,250.21 C374.793251,250.209991 376.094491,251.506758 376.100306,253.11 L376.100306,293 C376.105378,293.17676 376.039596,293.348285 375.917401,293.476119 C375.795207,293.603953 375.626823,293.677402 375.45,293.68 L375.45,293.68 Z M272.54,280.94 C266.392113,280.928992 261.411008,275.947887 261.399983,269.8 C261.395935,267.476738 262.127563,265.211841 263.49,263.33 C263.617583,263.121867 263.85103,263.002771 264.094424,263.021645 C264.337818,263.040519 264.550113,263.194181 264.644084,263.419495 C264.738055,263.644809 264.697855,263.903778 264.54,264.09 C261.617566,268.17064 262.23479,273.796861 265.972401,277.146862 C269.710012,280.496863 275.369988,280.496863 279.107599,277.146862 C282.84521,273.796861 283.462434,268.17064 280.54,264.09 C280.330132,263.797289 280.397289,263.389868 280.69,263.18 C280.982711,262.970132 281.390132,263.037289 281.6,263.33 C284.02364,266.714452 284.356057,271.168477 282.461651,274.875197 C280.567246,278.581917 276.762717,280.921659 272.6,280.94 L272.54,280.94 Z" class="page-1__group__shape"/>
      <path fill="#339" d="M264,264.36 C263.743086,264.360909 263.508993,264.21265 263.4,263.98 C261.725917,260.257911 262.481704,255.891983 265.309542,252.949224 C268.137381,250.006465 272.469756,249.077451 276.255546,250.602016 C280.041335,252.126581 282.520776,255.798763 282.52,259.88 C282.519776,261.291351 282.216257,262.686172 281.63,263.97 C281.551473,264.204932 281.346244,264.374808 281.100778,264.408059 C280.855312,264.44131 280.612285,264.332154 280.474088,264.12658 C280.33589,263.921005 280.326549,263.654754 280.45,263.44 C280.957602,262.321822 281.220142,261.107999 281.22,259.88 C281.22,255.075123 277.324877,251.18 272.52,251.18 C267.715123,251.18 263.82,255.075123 263.82,259.88 C263.819858,261.107999 264.082398,262.321822 264.59,263.44 C264.660654,263.597758 264.66556,263.777162 264.603634,263.938545 C264.541707,264.099929 264.418049,264.23 264.26,264.3 C264.179174,264.339935 264.090152,264.360479 264,264.36 Z M272.54,293.690001 C272.181015,293.690001 271.89,293.398985 271.89,293.04 L271.89,266.92 C271.89,266.561015 272.181015,266.27 272.54,266.27 C272.898985,266.27 273.19,266.561015 273.19,266.92 L273.19,293 C273.20105,293.17921 273.137477,293.355009 273.014361,293.485702 C272.891244,293.616395 272.71955,293.69034 272.54,293.690001 L272.54,293.690001 Z" class="page-1__group__shape"/>
      <path fill="#339" d="M272.58,275.65 C272.513687,275.659713 272.446313,275.659713 272.38,275.65 C269.917166,274.824595 268.082943,272.746318 267.57,270.2 C267.509607,269.846619 267.746734,269.511062 268.1,269.45 C268.452078,269.395256 268.784049,269.629848 268.85,269.98 C269.276194,272.048547 270.768697,273.735228 272.77,274.41 C273.111832,274.515641 273.304021,274.877671 273.2,275.22 C273.103714,275.478981 272.8563,275.650574 272.58,275.65 L272.58,275.65 Z" class="page-1__group__path"/>
      <path fill="#339" d="M272.58,275.65 C272.258217,275.652409 271.983106,275.419008 271.933047,275.101134 C271.882989,274.78326 272.073051,274.476604 272.38,274.38 C274.370393,273.717629 275.861631,272.051397 276.3,270 C276.370662,269.648405 276.705649,269.414796 277.06,269.47 C277.409205,269.535828 277.64082,269.869888 277.58,270.22 C277.067057,272.766318 275.232834,274.844595 272.77,275.67 C272.706018,275.673031 272.641948,275.666287 272.58,275.65 L272.58,275.65 Z M218.92,280.940019 C214.757283,280.921659 210.952754,278.581917 209.058349,274.875197 C207.163943,271.168477 207.49636,266.714452 209.92,263.33 C210.129868,263.037289 210.537289,262.970132 210.83,263.18 C211.122711,263.389868 211.189868,263.797289 210.98,264.09 C209.779952,265.751715 209.135934,267.750269 209.14,269.8 C209.025559,273.388493 210.874668,276.754476 213.964722,278.582574 C217.054776,280.410672 220.895224,280.410672 223.985278,278.582574 C227.075332,276.754476 228.924441,273.388493 228.81,269.8 C228.810472,267.749269 228.162989,265.750818 226.96,264.09 C226.754607,263.796258 226.821197,263.392281 227.11,263.18 C227.250373,263.078649 227.42538,263.03749 227.596212,263.065649 C227.767044,263.093808 227.919582,263.188959 228.02,263.33 C230.45666,266.720147 230.78908,271.189492 228.88076,274.90281 C226.97244,278.616127 223.144967,280.947651 218.97,280.940019 L218.92,280.940019 Z" class="page-1__group__shape"/>
      <path fill="#339" d="M227.44,264.36 C227.346772,264.359294 227.254752,264.338845 227.17,264.3 C226.844656,264.150415 226.701571,263.765873 226.85,263.44 C227.357602,262.321822 227.620142,261.107999 227.62,259.88 C227.62,255.075123 223.724877,251.18 218.92,251.18 C214.115123,251.18 210.22,255.075123 210.22,259.88 C210.219858,261.107999 210.482398,262.321822 210.99,263.44 C211.064098,263.596137 211.071898,263.775605 211.011628,263.937582 C210.951357,264.09956 210.828139,264.230277 210.67,264.3 C210.344127,264.448429 209.959585,264.305344 209.81,263.98 C208.124575,260.25685 208.874332,255.882781 211.703479,252.933471 C214.532626,249.984161 218.871745,249.053215 222.661743,250.582404 C226.451741,252.111594 228.929808,255.793142 228.920029,259.88 C228.907568,261.302875 228.594026,262.706996 228,264 C227.89196,264.21225 227.677948,264.349829 227.44,264.36 L227.44,264.36 Z M218.92,293.690001 C218.561015,293.690001 218.27,293.398985 218.27,293.04 L218.27,266.92 C218.27,266.561015 218.561015,266.27 218.92,266.27 C219.278985,266.27 219.57,266.561015 219.57,266.92 L219.57,293 C219.58105,293.17921 219.517477,293.355009 219.394361,293.485702 C219.271244,293.616395 219.09955,293.69034 218.92,293.690001 Z" class="page-1__group__shape"/>
      <path fill="#339" d="M219,275.65 C218.937031,275.659605 218.872969,275.659605 218.81,275.65 C216.34329,274.827567 214.504767,272.748739 213.99,270.2 C213.929607,269.846619 214.166734,269.511062 214.52,269.45 C214.872078,269.395256 215.204049,269.629848 215.27,269.98 C215.707379,272.042933 217.195631,273.72481 219.19,274.41 C219.355771,274.458397 219.494949,274.571732 219.575922,274.724263 C219.656896,274.876795 219.672792,275.055575 219.62,275.22 C219.526186,275.48089 219.277221,275.653559 219,275.65 L219,275.65 Z" class="page-1__group__path"/>
      <path fill="#339" d="M219,275.65 C218.714796,275.649293 218.463367,275.462749 218.38,275.19 C218.327208,275.025575 218.343104,274.846795 218.424078,274.694263 C218.505051,274.541732 218.644229,274.428397 218.81,274.38 C220.804369,273.69481 222.292621,272.012933 222.73,269.95 C222.803813,269.609934 223.132357,269.388323 223.475313,269.447269 C223.818269,269.506214 224.053966,269.824804 224.01,270.17 C223.495233,272.718739 221.65671,274.797567 219.19,275.62 C219.128576,275.639667 219.064496,275.649785 219,275.65 L219,275.65 Z M165.3,280.94 C161.12829,280.940331 157.306669,278.607775 155.399841,274.897362 C153.493013,271.186948 153.821188,266.72176 156.25,263.33 C156.459868,263.037289 156.867289,262.970132 157.16,263.18 C157.452711,263.389868 157.519868,263.797289 157.31,264.09 C154.387566,268.17064 155.00479,273.796861 158.742401,277.146862 C162.480012,280.496863 168.139988,280.496863 171.877599,277.146862 C175.61521,273.796861 176.232434,268.17064 173.31,264.09 C173.208649,263.949627 173.16749,263.77462 173.195649,263.603788 C173.223808,263.432956 173.318959,263.280418 173.46,263.18 C173.598774,263.079165 173.772218,263.038259 173.941423,263.06646 C174.110629,263.094661 174.261431,263.189608 174.36,263.33 C175.722437,265.211841 176.454065,267.476738 176.450017,269.8 C176.438978,275.951784 171.451792,280.934498 165.3,280.94 L165.3,280.94 Z" class="page-1__group__shape"/>
      <path fill="#339" d="M173.83,264.360014 C173.60932,264.357788 173.404349,264.245423 173.283793,264.06057 C173.163236,263.875717 173.14305,263.64284 173.23,263.44 C173.737602,262.321822 174.000142,261.107999 174,259.88 C174.107748,256.703253 172.47446,253.720601 169.739871,252.100306 C167.005283,250.480011 163.604717,250.480011 160.870129,252.100306 C158.13554,253.720601 156.502252,256.703253 156.61,259.88 C156.609858,261.107999 156.872398,262.321822 157.38,263.44 C157.521304,263.768726 157.374932,264.150179 157.05,264.3 C156.892242,264.370654 156.712838,264.37556 156.551455,264.313634 C156.390071,264.251707 156.26,264.128049 156.19,263.97 C155.606888,262.685505 155.306773,261.290651 155.309974,259.88 C155.309974,254.357153 159.787153,249.88 165.31,249.88 C170.832847,249.88 175.310026,254.357153 175.310026,259.88 C175.313227,261.290651 175.013112,262.685505 174.43,263.97 C174.326003,264.208302 174.090001,264.361704 173.83,264.360014 L173.83,264.360014 Z M165.3,293.69 C164.943261,293.684635 164.655365,293.396739 164.65,293.04 L164.65,266.92 C164.69093,266.589372 164.971848,266.341086 165.305,266.341086 C165.638152,266.341086 165.91907,266.589372 165.96,266.92 L165.96,293 C165.968199,293.180181 165.9023,293.355867 165.777626,293.486207 C165.652952,293.616548 165.480367,293.69 165.3,293.69 Z" class="page-1__group__shape"/>
      <path fill="#339" d="M165.34,275.65 C165.277031,275.659605 165.212969,275.659605 165.15,275.65 C162.684791,274.828179 160.849092,272.748229 160.34,270.2 C160.27918,269.849888 160.510795,269.515828 160.86,269.45 C161.21312,269.400034 161.544847,269.63137 161.62,269.98 C162.042398,272.050444 163.536353,273.738766 165.54,274.41 C165.846949,274.506604 166.037011,274.81326 165.986953,275.131134 C165.936894,275.449008 165.661783,275.682409 165.34,275.680018 L165.34,275.65 Z" class="page-1__group__path"/>
      <path fill="#339" d="M165.34,275.65 C165.055855,275.646131 164.806086,275.460818 164.72,275.19 C164.615979,274.847671 164.808168,274.485641 165.15,274.38 C167.144369,273.69481 168.632621,272.012933 169.07,269.95 C169.135951,269.599848 169.467922,269.365256 169.82,269.42 C170.173266,269.481062 170.410393,269.816619 170.35,270.17 C169.837057,272.716318 168.002834,274.794595 165.54,275.62 C165.475169,275.639769 165.407778,275.649877 165.34,275.65 L165.34,275.65 Z M330,197.850015 C324.202707,197.731933 319.550106,193.02553 319.498698,187.227263 C319.44729,181.428996 324.015712,176.640839 329.81,176.42 C330.168985,176.42 330.46,176.711015 330.46,177.07 C330.46,177.428985 330.168985,177.72 329.81,177.72 C325.147194,177.828087 321.265495,181.332037 320.682247,185.959484 C320.098999,190.586931 322.989825,194.944497 327.479977,196.206232 C331.970129,197.467966 336.707573,195.253947 338.62,191 C338.698527,190.765068 338.903756,190.595192 339.149222,190.561941 C339.394688,190.52869 339.637715,190.637846 339.775912,190.84342 C339.91411,191.048995 339.923451,191.315246 339.8,191.53 C338.06303,195.382805 334.226241,197.857142 330,197.850015 L330,197.850015 Z" class="page-1__group__shape"/>
      <path fill="#339" d="M336,192.51001 C332.230206,192.515543 328.829147,190.247171 327.385759,186.764642 C325.942371,183.282112 326.741578,179.272875 329.41,176.61 C329.664051,176.355949 330.075949,176.355949 330.33,176.61 C330.584051,176.864051 330.584051,177.275949 330.33,177.53 C328.823738,179.030626 327.9841,181.073865 328,183.2 C328,187.618278 331.581722,191.2 336,191.2 C337.028168,191.203229 338.047128,191.00623 339,190.62 C339.158979,190.5546 339.337584,190.555906 339.49559,190.623623 C339.653596,190.69134 339.777718,190.819774 339.84,190.98 C339.908335,191.138702 339.908489,191.318506 339.840424,191.477324 C339.772359,191.636143 339.64205,191.760034 339.48,191.82 C338.375679,192.273357 337.193755,192.507704 336,192.51001 L336,192.51001 Z M240.27,219.55 L215.27,219.55 C214.911015,219.55 214.62,219.258985 214.62,218.9 C214.62,218.541015 214.911015,218.25 215.27,218.25 L240.27,218.25 C240.628985,218.25 240.92,218.541015 240.92,218.9 C240.92,219.258985 240.628985,219.55 240.27,219.55 L240.27,219.55 Z M240.27,205.58 L215.27,205.58 C214.911015,205.58 214.62,205.288985 214.62,204.93 C214.62,204.571015 214.911015,204.28 215.27,204.28 L240.27,204.28 C240.628985,204.28 240.92,204.571015 240.92,204.93 C240.92,205.288985 240.628985,205.58 240.27,205.58 L240.27,205.58 Z M240.27,191.6 L215.27,191.6 C214.911015,191.6 214.62,191.308985 214.62,190.95 C214.62,190.591015 214.911015,190.3 215.27,190.3 L240.27,190.3 C240.628985,190.3 240.92,190.591015 240.92,190.95 C240.92,191.308985 240.628985,191.6 240.27,191.6 L240.27,191.6 Z M240.27,177.63 L215.27,177.63 C214.911015,177.63 214.62,177.338985 214.62,176.98 C214.62,176.621015 214.911015,176.33 215.27,176.33 L240.27,176.33 C240.626739,176.335365 240.914635,176.623261 240.92,176.98 C240.914635,177.336739 240.626739,177.624635 240.27,177.63 L240.27,177.63 Z M240.27,163.65 L215.27,163.65 C214.911015,163.65 214.62,163.358985 214.62,163 C214.62,162.641015 214.911015,162.35 215.27,162.35 L240.27,162.35 C240.628985,162.35 240.92,162.641015 240.92,163 C240.92,163.358985 240.628985,163.65 240.27,163.65 L240.27,163.65 Z M240.27,149.67 L215.27,149.67 C215.020388,149.701141 214.775216,149.585462 214.64054,149.373004 C214.505864,149.160546 214.505864,148.889454 214.64054,148.676996 C214.775216,148.464538 215.020388,148.348859 215.27,148.38 L240.27,148.38 C240.519612,148.348859 240.764784,148.464538 240.89946,148.676996 C241.034136,148.889454 241.034136,149.160546 240.89946,149.373004 C240.764784,149.585462 240.519612,149.701141 240.27,149.67 L240.27,149.67 Z M856.73,292.24 C856.371015,292.24 856.08,291.948985 856.08,291.59 L856.08,273.08 C856.074501,272.194729 855.355288,271.479983 854.47,271.48 L819.53,271.48 C817.92513,271.474513 816.625487,270.17487 816.62,268.57 L816.62,227.14 C816.622663,226.713924 816.455268,226.304384 816.154921,226.002159 C815.854574,225.699935 815.446085,225.529992 815.02,225.53 L776.08,225.53 C775.190822,225.53 774.47,226.250822 774.47,227.14 L774.47,237.88 C774.470005,238.650864 774.163097,239.390009 773.617077,239.934153 C773.071057,240.478297 772.330859,240.782658 771.56,240.78 L705.73,240.78 C704.128374,240.78 702.83,239.481626 702.83,237.88 L702.83,179.88 C702.824501,178.994729 702.105288,178.279983 701.22,178.28 L638.29,178.28 C637.404712,178.279983 636.685499,178.994729 636.68,179.88 L636.68,251.57 C636.68,251.928985 636.388985,252.22 636.03,252.22 C635.671015,252.22 635.38,251.928985 635.38,251.57 L635.38,179.88 C635.385487,178.27513 636.68513,176.975487 638.29,176.97 L701.22,176.97 C702.82487,176.975487 704.124513,178.27513 704.13,179.88 L704.13,237.88 C704.13,238.763656 704.846344,239.48 705.73,239.48 L771.56,239.48 C772.445288,239.480017 773.164501,238.765271 773.17,237.88 L773.17,227.14 C773.17,225.532851 774.472851,224.23 776.08,224.23 L815,224.23 C816.607149,224.23 817.91,225.532851 817.91,227.14 L817.91,268.57 C817.909983,269.455288 818.624729,270.174501 819.51,270.18 L854.45,270.18 C855.220859,270.177342 855.961057,270.481703 856.507077,271.025847 C857.053097,271.569991 857.36,272.309136 857.36,273.08 L857.36,291.59 C857.36,291.941317 857.081151,292.22919 856.73,292.24 L856.73,292.24 Z" class="page-1__group__shape"/>
      <path fill="#339" d="M673.14,177.88 C672.781015,177.88 672.49,177.588985 672.49,177.23 L672.49,152.79 C672.49,152.431015 672.781015,152.14 673.14,152.14 C673.498985,152.14 673.79,152.431015 673.79,152.79 L673.79,177.23 C673.79,177.588985 673.498985,177.88 673.14,177.88 Z M532.39,293.550693 C532.031015,293.550693 531.74,293.258985 531.74,292.9 L531.74,281.31 C531.74,279.702851 533.042851,278.4 534.65,278.4 L550.65,278.4 C551.535288,278.400017 552.254501,277.685271 552.26,276.8 L552.26,221.16 C552.259991,219.556749 553.556758,218.255509 555.16,218.25 L611.44,218.25 C613.047149,218.25 614.35,219.552851 614.35,221.16 L614.35,270.22 C614.355499,271.105271 615.074712,271.820017 615.96,271.82 L620.74,271.82 C621.098985,271.82 621.39,272.111015 621.39,272.47 C621.39,272.828985 621.098985,273.12 620.74,273.12 L616,273.12 C615.229141,273.122658 614.488943,272.818297 613.942923,272.274153 C613.396903,271.730009 613.089995,270.990864 613.09,270.22 L613.09,221.16 C613.09,220.270822 612.369178,219.55 611.48,219.55 L555.19,219.55 C554.304729,219.555499 553.589983,220.274712 553.59,221.16 L553.59,276.8 C553.584491,278.403242 552.283251,279.700009 550.68,279.7 L534.68,279.7 C533.790822,279.7 533.07,280.420822 533.07,281.31 L533.07,292.9 C533.070189,293.077717 532.997605,293.247761 532.869138,293.37056 C532.740672,293.493359 532.567527,293.558202 532.39,293.550693 L532.39,293.550693 Z M708.66,293.55 C708.301015,293.55 708.01,293.258985 708.01,292.9 L708.01,274.73 C708.01,273.840822 707.289178,273.12 706.4,273.12 L695.14,273.12 C694.781015,273.12 694.49,272.828985 694.49,272.47 C694.49,272.111015 694.781015,271.82 695.14,271.82 L706.4,271.82 C708.007149,271.82 709.31,273.122851 709.31,274.73 L709.31,292.9 C709.31,293.258985 709.018985,293.55 708.66,293.55 L708.66,293.55 Z" class="page-1__group__shape"/>
      <path fill="#339" d="M631.27,280.940072 C627.107283,280.921659 623.302754,278.581917 621.408349,274.875197 C619.513943,271.168477 619.84636,266.714452 622.27,263.33 C622.479868,263.037289 622.887289,262.970132 623.18,263.18 C623.472711,263.389868 623.539868,263.797289 623.33,264.09 C620.407566,268.17064 621.02479,273.796861 624.762401,277.146862 C628.500012,280.496863 634.159988,280.496863 637.897599,277.146862 C641.63521,273.796861 642.252434,268.17064 639.33,264.09 C639.228649,263.949627 639.18749,263.77462 639.215649,263.603788 C639.243808,263.432956 639.338959,263.280418 639.48,263.18 C639.618774,263.079165 639.792218,263.038259 639.961423,263.06646 C640.130629,263.094661 640.281431,263.189608 640.38,263.33 C641.742437,265.211841 642.474065,267.476738 642.470017,269.8 C642.464708,272.763292 641.281094,275.602817 639.180107,277.692549 C637.079119,279.782281 634.233278,280.950626 631.27,280.940072 L631.27,280.940072 Z" class="page-1__group__path"/>
      <path fill="#339" d="M639.8,264.36 C639.57932,264.357788 639.374349,264.245423 639.253793,264.06057 C639.133236,263.875717 639.11305,263.64284 639.2,263.44 C639.707602,262.321822 639.970142,261.107999 639.97,259.88 C640.077748,256.703253 638.44446,253.720601 635.709871,252.100306 C632.975283,250.480011 629.574717,250.480011 626.840129,252.100306 C624.10554,253.720601 622.472252,256.703253 622.58,259.88 C622.579858,261.107999 622.842398,262.321822 623.35,263.44 C623.491304,263.768726 623.344932,264.150179 623.02,264.3 C622.862242,264.370654 622.682838,264.37556 622.521455,264.313634 C622.360071,264.251707 622.23,264.128049 622.16,263.97 C621.576888,262.685505 621.276773,261.290651 621.279971,259.88 C621.270192,255.793142 623.748259,252.111594 627.538257,250.582404 C631.328255,249.053215 635.667374,249.984161 638.496521,252.933471 C641.325668,255.882781 642.075425,260.25685 640.39,263.98 C640.284483,264.211073 640.054024,264.359504 639.8,264.36 L639.8,264.36 Z M631.27,293.690001 C630.913261,293.684635 630.625365,293.396739 630.62,293.04 L630.62,266.92 C630.62,266.561015 630.911015,266.27 631.27,266.27 C631.628985,266.27 631.92,266.561015 631.92,266.92 L631.92,293 C631.93105,293.17921 631.867477,293.355009 631.744361,293.485702 C631.621244,293.616395 631.44955,293.69034 631.27,293.690001 L631.27,293.690001 Z" class="page-1__group__shape"/>
      <path fill="#339" d="M631.24,275.65 C630.918217,275.652409 630.643106,275.419008 630.593047,275.101134 C630.542989,274.78326 630.733051,274.476604 631.04,274.38 C633.045876,273.729483 634.554294,272.061081 635,270 C635.070662,269.648405 635.405649,269.414796 635.76,269.47 C636.109205,269.535828 636.34082,269.869888 636.28,270.22 C635.767057,272.766318 633.932834,274.844595 631.47,275.67 C631.392756,275.677558 631.31478,275.670777 631.24,275.65 Z" class="page-1__group__path"/>
      <path fill="#339" d="M631.24,275.65 C631.173687,275.659713 631.106313,275.659713 631.04,275.65 C628.577166,274.824595 626.742943,272.746318 626.23,270.2 C626.169607,269.846619 626.406734,269.511062 626.76,269.45 C627.110804,269.400601 627.439436,269.632834 627.51,269.98 C627.947379,272.042933 629.435631,273.72481 631.43,274.41 C631.771832,274.515641 631.964021,274.877671 631.86,275.22 C631.763714,275.478981 631.5163,275.650574 631.24,275.65 L631.24,275.65 Z M684.89,280.94 C680.727283,280.921659 676.922754,278.581917 675.028349,274.875197 C673.133943,271.168477 673.46636,266.714452 675.89,263.33 C676.099868,263.037289 676.507289,262.970132 676.8,263.18 C677.092711,263.389868 677.159868,263.797289 676.95,264.09 C675.749952,265.751715 675.105934,267.750269 675.11,269.8 C674.995559,273.388493 676.844668,276.754476 679.934722,278.582574 C683.024776,280.410672 686.865224,280.410672 689.955278,278.582574 C693.045332,276.754476 694.894441,273.388493 694.78,269.8 C694.780472,267.749269 694.132989,265.750818 692.93,264.09 C692.726713,263.793689 692.797832,263.389198 693.09,263.18 C693.228774,263.079165 693.402218,263.038259 693.571423,263.06646 C693.740629,263.094661 693.891431,263.189608 693.99,263.33 C695.324013,265.221486 696.027385,267.485576 696,269.8 C695.989065,275.93622 691.026168,280.912518 684.89,280.94 L684.89,280.94 Z" class="page-1__group__shape"/>
      <path fill="#339" d="M676.37,264.36 C676.115227,264.362063 675.883497,264.212813 675.78,263.98 C673.884869,259.781406 675.103046,254.831409 678.730244,251.991841 C682.357441,249.152273 687.455127,249.157868 691.076082,252.005393 C694.697037,254.852917 695.904344,259.805577 694,264 C693.853644,264.328609 693.468609,264.476355 693.14,264.33 C692.811391,264.183644 692.663645,263.798609 692.81,263.47 C693.317602,262.351822 693.580142,261.137999 693.58,259.91 C693.58,255.105123 689.684877,251.21 684.88,251.21 C680.075123,251.21 676.18,255.105123 676.18,259.91 C676.179858,261.137999 676.442398,262.351822 676.95,263.47 C677.098429,263.795873 676.955344,264.180415 676.63,264.33 C676.546205,264.357256 676.4578,264.367457 676.37,264.36 L676.37,264.36 Z M684.89,293.690001 C684.531015,293.690001 684.24,293.398985 684.24,293.04 L684.24,266.92 C684.24,266.561015 684.531015,266.27 684.89,266.27 C685.248985,266.27 685.54,266.561015 685.54,266.92 L685.54,293 C685.55105,293.17921 685.487477,293.355009 685.364361,293.485702 C685.241244,293.616395 685.06955,293.69034 684.89,293.690001 Z" class="page-1__group__shape"/>
      <path fill="#339" d="M684.85,275.65 C684.565855,275.646131 684.316086,275.460818 684.23,275.19 C684.125979,274.847671 684.318168,274.485641 684.66,274.38 C686.654369,273.69481 688.142621,272.012933 688.58,269.95 C688.653813,269.609934 688.982357,269.388323 689.325313,269.447269 C689.668269,269.506214 689.903966,269.824804 689.86,270.17 C689.347057,272.716318 687.512834,274.794595 685.05,275.62 C684.985169,275.639769 684.917778,275.649877 684.85,275.65 L684.85,275.65 Z" class="page-1__group__path"/>
      <path fill="#339" d="M684.85,275.65 C684.787031,275.659605 684.722969,275.659605 684.66,275.65 C682.197166,274.824595 680.362943,272.746318 679.85,270.2 C679.78918,269.849888 680.020795,269.515828 680.37,269.45 C680.72312,269.400034 681.054847,269.63137 681.13,269.98 C681.552398,272.050444 683.046353,273.738766 685.05,274.41 C685.356949,274.506604 685.547011,274.81326 685.496953,275.131134 C685.446894,275.449008 685.171783,275.682409 684.85,275.680018 L684.85,275.65 Z M738.51,280.94 C732.362113,280.928992 727.381008,275.947887 727.369983,269.8 C727.365935,267.476738 728.097563,265.211841 729.46,263.33 C729.563587,263.0773 729.814089,262.916304 730.086985,262.927041 C730.359881,262.937778 730.596959,263.117958 730.680372,263.378015 C730.763784,263.638073 730.675738,263.922535 730.46,264.09 C727.537566,268.17064 728.15479,273.796861 731.892401,277.146862 C735.630012,280.496863 741.289988,280.496863 745.027599,277.146862 C748.76521,273.796861 749.382434,268.17064 746.46,264.09 C746.324239,263.900649 746.299808,263.653254 746.39591,263.441006 C746.492012,263.228759 746.694047,263.083903 746.92591,263.061006 C747.157773,263.038109 747.384239,263.140649 747.52,263.33 C749.94364,266.714452 750.276057,271.168477 748.381651,274.875197 C746.487246,278.581917 742.682717,280.921659 738.52,280.94 L738.51,280.94 Z" class="page-1__group__shape"/>
      <path fill="#339" d="M747,264.360001 C746.906772,264.359294 746.814752,264.338845 746.73,264.3 C746.404656,264.150415 746.261571,263.765873 746.41,263.44 C746.917602,262.321822 747.180142,261.107999 747.18,259.88 C747.18,255.075123 743.284877,251.18 738.48,251.18 C733.675123,251.18 729.78,255.075123 729.78,259.88 C729.779858,261.107999 730.042398,262.321822 730.55,263.44 C730.696355,263.768609 730.548609,264.153645 730.22,264.3 C729.891391,264.446355 729.506355,264.298609 729.36,263.97 C727.685426,260.246804 728.442203,255.87952 731.271864,252.936832 C734.101524,249.994144 738.435835,249.066982 742.221732,250.594522 C746.007628,252.122062 748.484853,255.797554 748.480007,259.88 C748.479776,261.291351 748.176257,262.686172 747.59,263.97 C747.489547,264.206728 747.257159,264.360341 747,264.360001 L747,264.360001 Z M738.51,293.690001 C738.151015,293.690001 737.86,293.398985 737.86,293.04 L737.86,266.92 C737.86,266.561015 738.151015,266.27 738.51,266.27 C738.868985,266.27 739.16,266.561015 739.16,266.92 L739.16,293 C739.17105,293.17921 739.107477,293.355009 738.984361,293.485702 C738.861244,293.616395 738.68955,293.69034 738.51,293.690001 L738.51,293.690001 Z" class="page-1__group__shape"/>
      <path fill="#339" d="M738.47,275.65 C738.184796,275.649293 737.933367,275.462749 737.85,275.19 C737.797208,275.025575 737.813104,274.846795 737.894078,274.694263 C737.975051,274.541732 738.114229,274.428397 738.28,274.38 C740.261315,273.703861 741.746945,272.043897 742.2,270 C742.273813,269.659934 742.602357,269.438323 742.945313,269.497269 C743.288269,269.556214 743.523966,269.874804 743.48,270.22 C742.965233,272.768739 741.12671,274.847567 738.66,275.67 C738.596018,275.673031 738.531948,275.666287 738.47,275.65 L738.47,275.65 Z" class="page-1__group__path"/>
      <path fill="#339" d="M738.47,275.65 C738.407031,275.659605 738.342969,275.659605 738.28,275.65 C735.81329,274.827567 733.974767,272.748739 733.46,270.2 C733.399607,269.846619 733.636734,269.511062 733.99,269.45 C734.340804,269.400601 734.669436,269.632834 734.74,269.98 C735.177379,272.042933 736.665631,273.72481 738.66,274.41 C738.965144,274.506033 739.15505,274.809816 739.107718,275.126194 C739.060386,275.442572 738.789889,275.677476 738.47,275.68 L738.47,275.65 Z M688.5,219.55 L663.5,219.55 C663.141015,219.55 662.85,219.258985 662.85,218.9 C662.85,218.541015 663.141015,218.25 663.5,218.25 L688.5,218.25 C688.858985,218.25 689.15,218.541015 689.15,218.9 C689.15,219.258985 688.858985,219.55 688.5,219.55 Z M688.5,205.58 L663.5,205.58 C663.141015,205.58 662.85,205.288985 662.85,204.93 C662.85,204.571015 663.141015,204.28 663.5,204.28 L688.5,204.28 C688.858985,204.28 689.15,204.571015 689.15,204.93 C689.15,205.288985 688.858985,205.58 688.5,205.58 Z M688.5,191.6 L663.5,191.6 C663.141015,191.6 662.85,191.308985 662.85,190.95 C662.85,190.591015 663.141015,190.3 663.5,190.3 L688.5,190.3 C688.858985,190.3 689.15,190.591015 689.15,190.95 C689.15,191.308985 688.858985,191.6 688.5,191.6 Z" class="page-1__group__shape"/>
      <path fill="url(#linearGradient-1)" d="M451.91,26.15 C451.553261,26.1446346 451.265365,25.856739 451.26,25.5 L451.26,10 C451.26,9.64101491 451.551015,9.35 451.91,9.35 C452.268985,9.35 452.56,9.64101491 452.56,10 L452.56,25.5 C452.554635,25.856739 452.266739,26.1446346 451.91,26.15 L451.91,26.15 Z" class="page-1__group__path"/>
      <path fill="url(#linearGradient-2)" d="M482.39,52.6900012 C482.031015,52.6900012 481.74,52.3989851 481.74,52.04 L481.74,27.64 C481.740017,26.7547122 481.025271,26.0354987 480.14,26.03 L423.68,26.03 C422.790822,26.03 422.07,26.7508216 422.07,27.64 L422.07,52 C422.07,52.3589851 421.778985,52.65 421.42,52.65 C421.061015,52.65 420.77,52.3589851 420.77,52 L420.77,27.64 C420.77,26.0328514 422.072851,24.73 423.68,24.73 L480.14,24.73 C480.910864,24.73 481.650009,25.0369026 482.194153,25.5829228 C482.738297,26.128943 483.042658,26.869141 483.04,27.64 L483.04,52 C483.05105,52.1792103 482.987477,52.3550089 482.864361,52.4857021 C482.741244,52.6163952 482.56955,52.6903403 482.39,52.6900012 L482.39,52.6900012 Z" class="page-1__group__path"/>
      <path fill="url(#linearGradient-3)" d="M384.6,292.82 C384.241015,292.82 383.95,292.528985 383.95,292.17 L383.95,178.05 C383.95,176.442851 385.252851,175.14 386.86,175.14 L399,175.14 C399.358985,175.14 399.65,175.431015 399.65,175.79 C399.65,176.148985 399.358985,176.44 399,176.44 L386.86,176.44 C385.970822,176.44 385.25,177.160822 385.25,178.05 L385.25,292.17 C385.25,292.528985 384.958985,292.82 384.6,292.82 L384.6,292.82 Z" class="page-1__group__path"/>
      <path fill="url(#linearGradient-4)" d="M519.21,292.82 C518.851015,292.82 518.56,292.528985 518.56,292.17 L518.56,178.05 C518.560017,177.164712 517.845271,176.445499 516.96,176.44 L504.8,176.44 C504.441015,176.44 504.15,176.148985 504.15,175.79 C504.15,175.431015 504.441015,175.14 504.8,175.14 L517,175.14 C517.770864,175.14 518.510009,175.446903 519.054153,175.992923 C519.598297,176.538943 519.902658,177.279141 519.900017,178.05 L519.900017,292.17 C519.90034,292.34955 519.826395,292.521244 519.695702,292.644361 C519.565009,292.767477 519.38921,292.83105 519.21,292.82 L519.21,292.82 Z" class="page-1__group__path"/>
      <path fill="url(#linearGradient-5)" d="M504,292.82 C503.641015,292.82 503.35,292.528985 503.35,292.17 L503.35,55.22 C503.35,54.3308216 502.629178,53.61 501.74,53.61 L402.12,53.61 C401.693001,53.61 401.283492,53.7796245 400.981558,54.0815581 C400.679625,54.3834917 400.51,54.7930015 400.51,55.22 L400.51,292.22 C400.51,292.578985 400.218985,292.87 399.86,292.87 C399.501015,292.87 399.21,292.578985 399.21,292.22 L399.21,55.22 C399.215487,53.6151296 400.51513,52.3154868 402.12,52.31 L501.69,52.31 C503.29487,52.3154868 504.594513,53.6151296 504.6,55.22 L504.6,292.22 C504.576129,292.540964 504.320964,292.796129 504,292.82 L504,292.82 Z" class="page-1__group__path"/>
      <path fill="#339" d="M264.82,63.79 L263.82,63.79 C262.216758,63.7844905 260.92,62.4832515 260.92,60.88 L260.92,50.55 L262.22,50.55 L262.22,60.88 C262.219983,61.7652878 262.934729,62.4845013 263.82,62.49 L264.82,62.49 C265.706908,62.484542 266.424542,61.7669078 266.43,60.88 L266.43,50.55 L267.73,50.55 L267.73,60.88 C267.73,62.4871486 266.427149,63.79 264.82,63.79 L264.82,63.79 Z" class="page-1__group__path"/>
      <path fill="url(#linearGradient-6)" d="M293.48,51.2 C293.121015,51.2 292.83,50.9089851 292.83,50.55 C292.83,50.1910149 293.121015,49.9 293.48,49.9 C300.830458,50.1089645 307.000121,44.4048694 307.367333,37.0606167 C307.734546,29.7163639 302.164641,23.4252904 294.83,22.9 C294.508181,22.8609417 294.262374,22.593944 294.25,22.27 C294.128414,18.4811131 292.064477,15.0218126 288.787969,13.1152592 C285.511462,11.2087059 281.484137,11.1235872 278.13,12.89 C277.954362,12.9807454 277.745638,12.9807454 277.57,12.89 C277.388217,12.809683 277.252304,12.6517292 277.2,12.46 C275.685587,6.46935348 270.30239,2.26775319 264.123305,2.25360261 C257.94422,2.23945204 252.541835,6.41635252 251,12.4 C250.95216,12.5906909 250.81933,12.7488132 250.639755,12.8288412 C250.46018,12.9088692 250.253787,12.9019221 250.08,12.81 C246.718363,11.092683 242.710941,11.2190654 239.464195,13.1447914 C236.217449,15.0705175 234.184938,18.5265709 234.08,22.3 C234.071901,22.6201781 233.82837,22.8850717 233.51,22.92 C226.421142,23.7868506 221.229086,30.0176423 221.655129,37.1465847 C222.081172,44.2755272 227.978357,49.8435988 235.12,49.86 C235.478985,49.86 235.77,50.1510149 235.77,50.51 C235.77,50.8689851 235.478985,51.16 235.12,51.16 C227.381663,51.1637753 220.943037,45.2131611 220.33812,37.4985028 C219.733203,29.7838445 225.165649,22.9024029 232.81,21.7 C233.133463,17.7365504 235.345634,14.1713387 238.753288,12.1215925 C242.160941,10.0718464 246.347118,9.78837141 250,11.36 C251.946921,5.17771795 257.685471,0.977868564 264.167054,0.991581649 C270.648637,1.00536203 276.369321,5.2295152 278.29,11.42 C281.93653,9.83331766 286.12424,10.1012437 289.538837,12.1396909 C292.953435,14.1781382 295.176375,17.7372438 295.51,21.7 C303.219942,22.7671998 308.79055,29.6168541 308.264067,37.3824791 C307.737584,45.1481042 301.293433,51.1831985 293.51,51.2 L293.48,51.2 Z" class="page-1__group__path"/>
      <polygon fill="#339" points="235.14 49.9 293.48 49.9 293.48 51.2 235.14 51.2" class="page-1__group__path"/>
      <path fill="#252868" d="M6.1,293.69 L0.65,293.69 C0.291014913,293.69 0,293.398985 0,293.04 C0,292.681015 0.291014913,292.39 0.65,292.39 L6.1,292.39 C6.45898509,292.39 6.75,292.681015 6.75,293.04 C6.75,293.398985 6.45898509,293.69 6.1,293.69 Z M907.16,293.69 L901.71,293.69 C901.351015,293.69 901.06,293.398985 901.06,293.04 C901.06,292.681015 901.351015,292.39 901.71,292.39 L907.16,292.39 C907.518985,292.39 907.81,292.681015 907.81,293.04 C907.81,293.398985 907.518985,293.69 907.16,293.69 L907.16,293.69 Z" class="page-1__group__shape"/>
      <path fill="url(#linearGradient-7)" d="M470.47,293.000077 C470.111015,293.000077 469.82,292.708985 469.82,292.35 L469.82,276 C469.822688,275.64114 469.68132,275.296199 469.427561,275.042439 C469.173801,274.78868 468.82886,274.647312 468.47,274.65 L435.34,274.65 C434.598324,274.655494 433.99998,275.258303 434,276 L434,292.35 C434,292.708985 433.708985,293.000077 433.35,293.000077 C432.991015,293.000077 432.7,292.708985 432.7,292.35 L432.7,276 C432.7,274.536445 433.886445,273.35 435.35,273.35 L468.48,273.35 C469.943555,273.35 471.13,274.536445 471.13,276 L471.13,292.35 C471.13,292.524137 471.060168,292.691001 470.936098,292.813191 C470.812028,292.935382 470.644117,293.002679 470.47,293.000077 L470.47,293.000077 Z" class="page-1__group__path"/>
      <path fill="#339" d="M465.21,92.84 C464.977777,92.84 464.763195,92.7161107 464.647083,92.515 C464.530972,92.3138893 464.530972,92.0661107 464.647083,91.865 C464.763195,91.6638893 464.977777,91.54 465.21,91.54 C466.364857,91.4620065 467.26176,90.5024877 467.26176,89.345 C467.26176,88.1875123 466.364857,87.2279935 465.21,87.15 L438.61,87.15 C437.455143,87.2279935 436.55824,88.1875123 436.55824,89.345 C436.55824,90.5024877 437.455143,91.4620065 438.61,91.54 C438.968985,91.5400001 439.26,91.831015 439.26,92.19 C439.26,92.548985 438.968985,92.84 438.61,92.84 C436.677003,92.84 435.11,91.2729966 435.11,89.34 C435.11,87.4070034 436.677003,85.84 438.61,85.84 L465.21,85.84 C467.142997,85.84 468.71,87.4070034 468.71,89.34 C468.71,91.2729966 467.142997,92.84 465.21,92.84 L465.21,92.84 Z" class="page-1__group__path"/>
      <path fill="#339" d="M465.21,92.84 L438.61,92.84 C438.251015,92.84 437.96,92.548985 437.96,92.19 C437.96,91.831015 438.251015,91.54 438.61,91.54 L465.21,91.54 C465.568985,91.54 465.86,91.831015 465.86,92.19 C465.86,92.548985 465.568985,92.84 465.21,92.84 L465.21,92.84 Z M465.21,120.53 C464.977777,120.53 464.763195,120.406111 464.647083,120.205 C464.530972,120.003889 464.530972,119.756111 464.647083,119.555 C464.763195,119.353889 464.977777,119.23 465.21,119.23 C466.364857,119.152007 467.26176,118.192488 467.26176,117.035 C467.26176,115.877512 466.364857,114.917993 465.21,114.84 L438.61,114.84 C437.455143,114.917993 436.55824,115.877512 436.55824,117.035 C436.55824,118.192488 437.455143,119.152007 438.61,119.23 C438.968985,119.23 439.26,119.521015 439.26,119.88 C439.26,120.238985 438.968985,120.53 438.61,120.53 C436.677003,120.53 435.11,118.962997 435.11,117.03 C435.11,115.097003 436.677003,113.53 438.61,113.53 L465.21,113.53 C467.142997,113.53 468.71,115.097003 468.71,117.03 C468.71,118.962997 467.142997,120.53 465.21,120.53 L465.21,120.53 Z" class="page-1__group__shape"/>
      <path fill="#339" d="M465.21,120.53 L438.61,120.53 C438.251015,120.53 437.96,120.238985 437.96,119.88 C437.96,119.521015 438.251015,119.23 438.61,119.23 L465.21,119.23 C465.568985,119.23 465.86,119.521015 465.86,119.88 C465.86,120.238985 465.568985,120.53 465.21,120.53 L465.21,120.53 Z M465.21,175.91 C464.851015,175.91 464.56,175.618985 464.56,175.26 C464.56,174.901015 464.851015,174.61 465.21,174.61 C466.364857,174.532007 467.26176,173.572488 467.26176,172.415 C467.26176,171.257512 466.364857,170.297993 465.21,170.22 L438.61,170.22 C437.455143,170.297993 436.55824,171.257512 436.55824,172.415 C436.55824,173.572488 437.455143,174.532007 438.61,174.61 C438.968985,174.61 439.26,174.901015 439.26,175.26 C439.26,175.618985 438.968985,175.91 438.61,175.91 C436.677003,175.91 435.11,174.342997 435.11,172.41 C435.11,170.477003 436.677003,168.91 438.61,168.91 L465.21,168.91 C467.142997,168.91 468.71,170.477003 468.71,172.41 C468.71,174.342997 467.142997,175.91 465.21,175.91 L465.21,175.91 Z" class="page-1__group__shape"/>
      <path fill="#339" d="M465.21,175.91 L438.61,175.91 C438.251015,175.91 437.96,175.618985 437.96,175.26 C437.96,174.901015 438.251015,174.61 438.61,174.61 L465.21,174.61 C465.568985,174.61 465.86,174.901015 465.86,175.26 C465.86,175.618985 465.568985,175.91 465.21,175.91 Z M465.77,231.28 C465.411015,231.28 465.12,230.988985 465.12,230.63 C465.12,230.271015 465.411015,229.98 465.77,229.98 C466.655288,229.980017 467.374501,229.265271 467.38,228.38 L467.38,227.2 C467.374501,226.314729 466.655288,225.599983 465.77,225.6 L438,225.6 C437.116344,225.6 436.4,226.316344 436.4,227.2 L436.4,228.38 C436.394652,228.807801 436.560859,229.219924 436.861499,229.524322 C437.162139,229.82872 437.572166,230.000033 438,230 C438.358985,230 438.65,230.291015 438.65,230.65 C438.65,231.008985 438.358985,231.3 438,231.3 C436.396749,231.3 435.095509,230.003242 435.09,228.4 L435.09,227.2 C435.095487,225.59513 436.39513,224.295487 438,224.29 L465.73,224.29 C467.33487,224.295487 468.634513,225.59513 468.64,227.2 L468.64,228.38 C468.634694,229.967761 467.35762,231.258184 465.77,231.28 L465.77,231.28 Z" class="page-1__group__shape"/>
      <path fill="#339" d="M465.77,231.28 L438,231.28 C437.641015,231.28 437.35,230.988985 437.35,230.63 C437.35,230.271015 437.641015,229.98 438,229.98 L465.73,229.98 C466.088985,229.98 466.38,230.271015 466.38,230.63 C466.38,230.988985 466.088985,231.28 465.73,231.28 L465.77,231.28 Z" class="page-1__group__path"/>
      <path fill="url(#linearGradient-8)" d="M617.24,152.69 C605.66,152.69 590.86,145.54 574.39,137.58 C556.75,129.05 536.75,119.39 517.55,117.38 C495.55,115.09 478.07,123.2 463.97,142.18 C463.861304,142.427293 463.610992,142.581585 463.341228,142.567573 C463.071465,142.553561 462.838484,142.374166 462.755994,142.116943 C462.673504,141.85972 462.758699,141.578287 462.97,141.41 C495.29,97.89 539.48,119.24 574.97,136.41 C596.81,146.97 615.68,156.08 627.4,148.73 C636.19,143.22 640.46,128.42 640.46,103.5 C640.46,103.267777 640.583889,103.053195 640.785,102.937083 C640.986111,102.820972 641.233889,102.820972 641.435,102.937083 C641.636111,103.053195 641.76,103.267777 641.76,103.5 C641.76,129.26 637.42,143.98 628.09,149.83 C624.822537,151.804334 621.056128,152.797139 617.24,152.69 L617.24,152.69 Z" class="page-1__group__path"/>
      <path fill="url(#linearGradient-9)" d="M440.36,197.85 C440.065512,197.851188 439.807018,197.654241 439.73,197.37 C432.57,170.89 419.5,153.58 399.73,144.44 C382.28,136.35 361.97,135.44 342.34,134.6 C301.85,132.83 263.61,131.15 263.61,63.95 C263.61,63.5910149 263.901015,63.3 264.26,63.3 C264.618985,63.3 264.91,63.5910149 264.91,63.95 C264.91,94.11 272.36,112.77 288.33,122.7 C302.61,131.56 321.93,132.41 342.39,133.3 C362.16,134.17 382.59,135.07 400.27,143.3 C420.37,152.61 433.67,170.2 440.94,197.07 C441.029553,197.417364 440.825261,197.772654 440.48,197.87 L440.36,197.85 Z" class="page-1__group__path"/>
      <path fill="#EAECF4" d="M465.21,141.22 L438.61,141.22 C436.677003,141.22 435.11,142.787003 435.11,144.72 C435.11,146.652997 436.677003,148.22 438.61,148.22 L465.21,148.22 C467.142997,148.22 468.71,146.652997 468.71,144.72 C468.71,142.787003 467.142997,141.22 465.21,141.22 L465.21,141.22 Z M465.21,196.57 L438.61,196.57 C436.677003,196.57 435.11,198.137003 435.11,200.07 C435.11,202.002997 436.677003,203.57 438.61,203.57 L465.21,203.57 C467.142997,203.57 468.71,202.002997 468.71,200.07 C468.71,198.137003 467.142997,196.57 465.21,196.57 L465.21,196.57 Z" class="page-1__group__shape"/>
      <path fill="#252868" d="M893.73,293.69 L12,293.69 C11.6410149,293.69 11.35,293.398985 11.35,293.04 C11.35,292.681015 11.6410149,292.39 12,292.39 L893.73,292.39 C894.088985,292.39 894.38,292.681015 894.38,293.04 C894.38,293.398985 894.088985,293.69 893.73,293.69 Z" class="page-1__group__path"/>
      <path fill="#339" d="M262,271.63 L229.53,271.63 C229.171015,271.63 228.88,271.338985 228.88,270.98 C228.88,270.621015 229.171015,270.33 229.53,270.33 L262,270.33 C262.358985,270.33 262.65,270.621015 262.65,270.98 C262.65,271.338985 262.358985,271.63 262,271.63 Z M674.55,273.12 L641.61,273.12 C641.251015,273.12 640.96,272.828985 640.96,272.47 C640.96,272.111015 641.251015,271.82 641.61,271.82 L674.55,271.82 C674.908985,271.82 675.2,272.111015 675.2,272.47 C675.2,272.828985 674.908985,273.12 674.55,273.12 Z M641.61,103.860017 L640.61,103.860017 C639.839141,103.862658 639.098943,103.558297 638.552923,103.014153 C638.006903,102.470009 637.7,101.730864 637.7,100.96 L637.7,90.62 L639,90.62 L639,101 C639.005499,101.885271 639.724712,102.600017 640.61,102.6 L641.61,102.6 C642.495288,102.600017 643.214501,101.885271 643.22,101 L643.22,90.62 L644.52,90.62 L644.52,101 C644.492718,102.587589 643.197823,103.860234 641.61,103.860017 L641.61,103.860017 Z" class="page-1__group__shape"/>
      <path fill="url(#linearGradient-10)" d="M670.27,91.27 C670.020388,91.3011405 669.775216,91.1854619 669.64054,90.9730039 C669.505864,90.760546 669.505864,90.489454 669.64054,90.2769961 C669.775216,90.0645381 670.020388,89.9488595 670.27,89.98 C677.620458,90.1889645 683.790121,84.4848694 684.157333,77.1406167 C684.524546,69.7963639 678.954641,63.5052904 671.62,62.98 C671.293748,62.9545646 671.039236,62.6871121 671.03,62.36 C670.825154,56.4337634 665.959775,51.7364607 660.03,51.74 C658.248973,51.7334301 656.493815,52.166209 654.92,53 C654.739473,53.0848505 654.530527,53.0848505 654.35,53 C654.17116,52.9184675 654.038816,52.7603903 653.99,52.57 C652.477891,46.5787522 647.096287,42.3750727 640.917189,42.3585637 C634.738091,42.3420546 629.334101,46.5169176 627.79,52.5 C627.741194,52.6902373 627.608991,52.8482075 627.43033,52.9297701 C627.251669,53.0113327 627.045709,53.0077415 626.87,52.92 C623.509923,51.2033594 619.504469,51.3286956 616.258293,53.252055 C613.012116,55.1754143 610.978272,58.6283627 610.87,62.4 C610.858384,62.7206301 610.617872,62.9864594 610.3,63.03 C603.075297,63.7518148 597.710689,70.0512037 598.148707,77.2986507 C598.586724,84.5460976 604.670953,90.1535472 611.93,90 C612.179612,89.9688595 612.424784,90.0845381 612.55946,90.2969961 C612.694136,90.509454 612.694136,90.780546 612.55946,90.9930039 C612.424784,91.2054619 612.179612,91.3211405 611.93,91.29 C604.215724,91.2614471 597.813478,85.3197003 597.210234,77.6289935 C596.60699,69.9382868 602.00452,63.0709888 609.62,61.84 C609.93505,57.8860698 612.13152,54.3246046 615.523257,52.2681658 C618.914994,50.2117271 623.088493,49.9110267 626.74,51.46 C628.692881,45.280899 634.431687,41.0853719 640.91203,41.0990775 C647.392373,41.1128503 653.113338,45.3326738 655.04,51.52 C656.617445,50.8376271 658.321446,50.4968268 660.04,50.52 C666.464544,50.4991588 671.822934,55.4262638 672.34,61.83 C680.049942,62.8971998 685.62055,69.7468541 685.094067,77.5124791 C684.567584,85.2781042 678.123433,91.3131985 670.34,91.33 L670.27,91.27 Z" class="page-1__group__path"/>
      <polygon fill="#339" points="611.93 89.98 670.27 89.98 670.27 91.28 611.93 91.28" class="page-1__group__path"/>
    </g>
  </g>
</svg>
