<?xml version="1.0" standalone="no"?>
<!DOCTYPE svg PUBLIC "-//W3C//DTD SVG 20010904//EN"
 "http://www.w3.org/TR/2001/REC-SVG-20010904/DTD/svg10.dtd">
<svg version="1.0" xmlns="http://www.w3.org/2000/svg"
 width="529.000000pt" height="484.000000pt" viewBox="0 0 529.000000 484.000000"
 preserveAspectRatio="xMidYMid meet">
<metadata>
Created by potrace 1.15, written by Peter Selinger 2001-2017
</metadata>
<g transform="translate(0.000000,484.000000) scale(0.100000,-0.100000)"
fill="#000000" stroke="none">
<path d="M1308 4418 c-9 -16 -13 -65 -13 -163 0 -129 2 -144 25 -190 l25 -50
93 -3 92 -3 0 -57 c2 -209 22 -627 36 -732 44 -336 127 -502 278 -558 54 -21
212 -46 227 -36 23 14 1 22 -96 37 -64 10 -124 26 -153 41 -173 88 -246 336
-268 919 -5 129 -4 177 5 177 7 0 11 33 11 105 l0 104 93 3 92 3 25 50 c23 46
25 61 25 190 0 98 -4 147 -13 163 -18 32 -25 22 -12 -14 21 -54 24 -193 6
-264 -27 -107 -34 -110 -237 -110 -166 0 -170 1 -194 24 -13 13 -29 43 -36 67
-16 57 -16 223 0 272 15 45 9 59 -11 25z"/>
<path d="M3498 3758 c-9 -16 -13 -65 -13 -163 0 -129 2 -144 25 -190 l25 -50
86 -3 86 -3 7 -167 c7 -172 -5 -463 -24 -593 -22 -145 -58 -219 -107 -219 -37
0 -99 64 -233 245 -127 170 -168 218 -154 179 14 -37 259 -366 306 -410 56
-52 100 -59 136 -21 58 62 92 289 92 619 0 124 3 167 13 170 8 3 13 35 15 101
l4 97 64 0 c36 0 64 4 64 10 0 6 -59 10 -156 10 -92 0 -164 4 -176 11 -54 29
-84 206 -55 329 17 71 16 84 -5 48z"/>
<path d="M2544 3437 c-3 -8 -4 -34 -2 -58 l3 -44 90 0 90 0 0 55 0 55 -88 3
c-68 2 -89 0 -93 -11z"/>
<path d="M1350 2840 l0 -199 -92 -3 -93 -3 -5 -860 -5 -860 -192 -3 -193 -2
-1 102 c-2 163 8 153 -139 153 l-125 0 -5 -375 c-3 -206 -7 -376 -8 -377 -1
-1 -50 -4 -109 -5 l-108 -3 0 -185 -1 -185 6 170 5 170 110 5 110 5 5 375 5
375 115 0 115 0 2 -105 c2 -58 5 -115 8 -128 l5 -22 202 2 202 3 7 25 c4 14 7
402 8 863 l1 837 165 0 165 0 0 -437 c0 -241 4 -443 8 -450 5 -8 42 -13 102
-15 l95 -3 3 -227 2 -228 -79 0 c-63 0 -80 -3 -85 -16 -3 -9 -6 -129 -6 -267
0 -194 -4 -261 -15 -292 -16 -45 -20 -192 -5 -197 5 -2 7 -19 3 -41 l-6 -37
-82 0 -82 0 -7 50 c-4 28 -10 50 -15 50 -5 0 -10 38 -13 84 -5 96 -24 136 -63
136 -41 0 -59 -40 -63 -146 -3 -52 0 -94 5 -94 5 0 9 33 9 73 0 76 22 137 49
137 27 0 49 -61 49 -137 0 -50 4 -74 13 -78 20 -7 11 -177 -11 -210 -21 -33
-40 -28 -44 11 -2 22 0 25 7 14 16 -24 19 -8 11 55 -4 33 -9 51 -10 40 -2 -11
-6 0 -10 25 -7 43 -7 41 -9 -25 -2 -58 -4 -66 -12 -45 -6 15 -8 54 -4 94 4 47
3 66 -4 61 -6 -3 -11 -28 -11 -55 l0 -49 -37 -3 -38 -3 -3 -182 -2 -183 -90 0
-90 0 0 95 c0 81 3 99 20 117 30 33 41 110 38 278 -3 173 -14 210 -63 210 -49
0 -60 -37 -63 -214 -5 -192 2 -240 34 -273 22 -22 24 -32 24 -118 l0 -95 -450
0 c-293 0 -450 -3 -450 -10 0 -7 862 -10 2565 -10 1703 0 2565 3 2565 10 0 7
-152 10 -435 10 l-435 0 0 95 c0 82 3 100 21 125 19 24 23 50 31 177 15 227 0
303 -57 303 -45 0 -57 -36 -67 -198 -5 -81 -6 -167 -3 -192 8 -56 33 -110 51
-110 11 0 14 -21 14 -100 l0 -100 -150 0 -150 0 0 103 c1 73 5 107 15 121 8
11 18 41 21 68 6 47 8 48 40 48 l34 0 3 -167 3 -168 2 183 2 182 -40 0 -40 0
0 45 c0 27 5 45 11 45 8 0 10 29 7 94 -4 106 -22 146 -63 146 -38 0 -56 -39
-66 -143 -5 -50 -11 -116 -15 -144 l-7 -53 -88 0 -89 0 0 125 c0 84 -5 139
-15 169 -13 38 -15 131 -13 643 l3 598 187 3 188 2 2 -512 3 -513 207 -3 207
-2 3 122 3 123 115 0 115 0 5 -375 5 -375 110 -5 110 -5 5 -170 6 -170 -1 185
0 185 -107 3 -108 3 0 348 c0 192 -3 363 -6 380 l-7 32 -126 -3 -126 -3 -5
-120 -5 -120 -192 -3 -193 -2 0 484 c0 266 -3 498 -6 515 l-6 31 -84 0 -84 0
0 205 c0 130 -4 205 -10 205 -6 0 -10 -75 -10 -205 l0 -204 -102 -3 -103 -3
-3 -612 -2 -613 -25 0 c-41 0 -57 -38 -66 -163 -4 -62 -8 -125 -8 -141 -1 -16
-4 -26 -8 -22 -5 4 -10 204 -13 444 l-5 437 -173 3 -172 2 -10 -25 c-6 -16
-10 -214 -10 -501 l0 -474 -55 0 -55 0 2 -127 2 -128 3 112 4 113 53 0 c40 0
55 4 60 16 3 9 6 231 6 495 l0 479 170 0 170 0 0 -435 c0 -378 2 -436 15 -441
8 -4 15 -18 15 -33 1 -38 36 -111 55 -111 12 0 15 -16 15 -100 l0 -100 -325 0
-325 0 -3 503 -2 502 -3 -502 -2 -503 -30 0 -30 0 -3 1458 -2 1457 -3 -1457
-2 -1458 -100 0 -99 0 -4 88 -3 87 -2 -87 -2 -88 -100 0 -99 0 -4 83 -3 82 -2
-82 -2 -83 -95 0 -95 0 -3 1233 -2 1232 -3 -1232 -2 -1233 -30 0 -30 0 -3 507
-2 508 -3 -507 -2 -508 -25 0 -25 0 0 350 0 349 -137 3 -138 3 -5 260 -5 260
-92 3 -93 3 -2 242 -3 242 -97 3 -98 3 -2 447 -3 447 -77 3 -78 3 0 199 c0
127 -4 200 -10 200 -6 0 -10 -73 -10 -200z m550 -1866 c0 -150 4 -253 10 -265
10 -17 22 -19 145 -19 l135 0 0 -335 0 -335 -300 0 -300 0 0 94 c0 84 2 94 19
99 11 2 27 20 37 38 21 41 24 170 7 322 -12 104 -30 147 -63 147 -19 0 -20 8
-20 250 l0 250 165 0 165 0 0 -246z m-899 -322 c13 -38 13 -63 7 -242 -3 -96
-20 -172 -35 -157 -3 4 0 34 6 68 8 40 9 64 3 68 -6 3 -12 20 -15 36 -2 17 -5
1 -6 -35 -3 -63 -3 -64 -14 -30 l-11 35 -4 -32 c-2 -17 4 -45 12 -62 21 -39
21 -58 2 -41 -8 6 -19 35 -25 63 -13 66 -7 293 8 332 23 56 53 54 72 -3z
m2717 -30 c16 -78 7 -290 -14 -337 -16 -37 -18 -38 -22 -15 -2 13 1 26 7 28 6
2 11 25 11 50 0 34 -3 43 -10 32 -7 -11 -10 -3 -11 30 l-1 45 -9 -35 c-5 -19
-7 -65 -5 -102 3 -41 1 -68 -5 -68 -21 0 -40 73 -39 149 1 42 1 96 1 121 -1
62 16 141 36 162 15 17 18 17 34 2 10 -9 22 -37 27 -62z m-2101 36 c11 -22 17
-58 18 -105 0 -39 4 -75 8 -79 4 -4 7 -41 7 -83 0 -77 -20 -140 -47 -149 -15
-4 -18 35 -3 40 5 2 12 30 15 63 5 60 5 60 -9 25 l-14 -35 -2 60 c-2 59 -2 60
-11 20 -5 -22 -7 -67 -4 -100 l4 -60 -15 45 c-11 32 -14 68 -11 124 4 65 2 82
-10 91 -13 9 -14 23 -9 69 5 35 13 59 22 63 8 3 14 14 14 24 0 30 28 22 47
-13z m2417 5 c7 -16 17 -47 21 -70 7 -45 -1 -106 -14 -99 -4 3 -7 -39 -7 -92
1 -62 -4 -104 -12 -117 -12 -19 -12 -19 -11 5 1 14 1 57 -1 95 -3 63 -4 66
-10 30 -4 -22 -8 -33 -10 -25 -1 8 -6 -12 -10 -45 -8 -63 -5 -79 10 -55 7 11
10 6 10 -17 0 -40 -14 -42 -37 -6 -19 28 -21 97 -11 278 7 123 48 182 82 118z
m312 -5 c17 -33 19 -67 11 -243 -4 -95 -25 -183 -34 -143 -2 9 1 26 6 37 13
24 14 84 2 76 -6 -3 -12 12 -14 32 -4 40 -12 -89 -9 -139 1 -16 -2 -28 -8 -28
-15 0 -30 36 -35 87 -5 44 -4 45 5 16 12 -37 36 -47 26 -10 -4 12 -9 37 -13
55 -3 17 -9 32 -13 32 -3 0 -6 44 -5 98 2 142 42 206 81 130z m-2812 -310 c3
-13 6 -32 6 -43 0 -12 9 -38 20 -60 16 -31 20 -59 20 -132 l0 -93 -155 0 -155
0 0 100 c0 99 0 100 24 100 27 0 50 39 61 108 l7 42 83 0 c77 0 83 -1 89 -22z
m-295 -45 c7 -32 15 -109 18 -170 l4 -113 -50 0 -51 0 0 163 c0 90 3 167 7
170 3 4 18 7 33 7 23 0 27 -6 39 -57z m2692 4 c8 -52 29 -87 51 -87 16 0 18
-10 18 -100 l0 -100 -160 0 -160 0 0 100 c0 63 4 100 10 100 14 0 49 78 50
108 0 22 2 23 92 20 l93 -3 6 -38z"/>
<path d="M2547 2994 c-10 -11 -9 -89 3 -118 9 -25 13 -26 85 -26 73 0 76 1 86
27 5 15 9 47 7 72 l-3 46 -85 3 c-47 1 -89 0 -93 -4z"/>
<path d="M2547 2064 c-12 -12 -8 -99 5 -112 7 -7 43 -12 90 -12 73 0 78 1 84
23 3 13 4 41 2 63 l-3 39 -85 3 c-47 1 -89 0 -93 -4z"/>
<path d="M1920 1949 c0 -7 -11 -22 -24 -34 -35 -33 -49 -95 -44 -202 4 -100
25 -148 64 -148 22 0 54 57 54 98 0 15 5 27 10 27 6 0 10 9 10 19 0 14 -5 18
-18 14 -37 -9 -58 104 -39 200 5 24 4 37 -3 37 -5 0 -10 -5 -10 -11z m-4 -187
c3 -24 14 -52 24 -62 16 -16 17 -25 9 -53 -22 -79 -60 -65 -79 30 -14 65 -6
142 18 187 l17 31 2 -45 c2 -25 6 -64 9 -88z"/>
<path d="M2547 1154 c-4 -4 -7 -34 -7 -66 l0 -59 93 3 92 3 0 60 0 60 -85 3
c-47 1 -89 0 -93 -4z"/>
</g>
</svg>
